<svg width="40" height="58" viewBox="0 0 40 58" fill="none" xmlns="http://www.w3.org/2000/svg">
<mask id="path-1-inside-1_39_150" fill="white">
<path d="M24.4481 17.7639C25.9801 16.2041 26.8961 14.1259 27.0222 11.9238C27.1484 9.7217 26.4758 7.54915 25.1322 5.81869C23.7886 4.08823 21.8676 2.92039 19.734 2.53693C17.6003 2.15348 15.4027 2.58112 13.5584 3.73864C11.714 4.89617 10.3515 6.70296 9.72942 8.81591C9.10737 10.9289 9.26915 13.2008 10.184 15.2003C11.0989 17.1998 12.7032 18.7877 14.6922 19.6623C16.6813 20.5368 18.9165 20.6373 20.9735 19.9445L20.5256 18.5661C18.8005 19.1471 16.9258 19.0628 15.2577 18.3293C13.5896 17.5958 12.2441 16.2642 11.4768 14.5872C10.7095 12.9103 10.5738 11.0049 11.0955 9.23278C11.6172 7.4607 12.76 5.94539 14.3067 4.97461C15.8535 4.00382 17.6966 3.64517 19.486 3.96676C21.2755 4.28836 22.8866 5.2678 24.0134 6.71909C25.1402 8.17038 25.7043 9.99244 25.5985 11.8393C25.4928 13.6861 24.7245 15.4291 23.4396 16.7372L24.4481 17.7639Z"/>
</mask>
<path d="M24.4481 17.7639C25.9801 16.2041 26.8961 14.1259 27.0222 11.9238C27.1484 9.7217 26.4758 7.54915 25.1322 5.81869C23.7886 4.08823 21.8676 2.92039 19.734 2.53693C17.6003 2.15348 15.4027 2.58112 13.5584 3.73864C11.714 4.89617 10.3515 6.70296 9.72942 8.81591C9.10737 10.9289 9.26915 13.2008 10.184 15.2003C11.0989 17.1998 12.7032 18.7877 14.6922 19.6623C16.6813 20.5368 18.9165 20.6373 20.9735 19.9445L20.5256 18.5661C18.8005 19.1471 16.9258 19.0628 15.2577 18.3293C13.5896 17.5958 12.2441 16.2642 11.4768 14.5872C10.7095 12.9103 10.5738 11.0049 11.0955 9.23278C11.6172 7.4607 12.76 5.94539 14.3067 4.97461C15.8535 4.00382 17.6966 3.64517 19.486 3.96676C21.2755 4.28836 22.8866 5.2678 24.0134 6.71909C25.1402 8.17038 25.7043 9.99244 25.5985 11.8393C25.4928 13.6861 24.7245 15.4291 23.4396 16.7372L24.4481 17.7639Z" fill="#7A33FF" stroke="#7A33FF" stroke-width="2" mask="url(#path-1-inside-1_39_150)"/>
<mask id="path-2-inside-2_39_150" fill="white">
<path d="M26.115 19.461C28.0556 17.4853 29.2159 14.8529 29.3757 12.0636C29.5354 9.27428 28.6835 6.52238 26.9816 4.33046C25.2797 2.13855 22.8464 0.659282 20.1438 0.173573C17.4413 -0.312137 14.6576 0.22954 12.3214 1.69574C9.98529 3.16193 8.25937 5.45054 7.47144 8.12695C6.6835 10.8034 6.88842 13.6812 8.04728 16.2139C9.20615 18.7466 11.2382 20.7578 13.7577 21.8656C16.2771 22.9735 19.1084 23.1007 21.7139 22.2232L21.3119 20.9857C19.0043 21.7629 16.4967 21.6502 14.2653 20.6691C12.0339 19.6879 10.2342 17.9066 9.20779 15.6635C8.18142 13.4204 7.99993 10.8716 8.69778 8.50117C9.39563 6.13077 10.9242 4.10383 12.9933 2.80527C15.0623 1.50672 17.5277 1.02697 19.9213 1.45715C22.3149 1.88732 24.4699 3.19746 25.9772 5.13876C27.4845 7.08006 28.2391 9.51733 28.0976 11.9877C27.9561 14.4581 26.9285 16.7896 25.2098 18.5394L26.115 19.461Z"/>
</mask>
<path d="M26.115 19.461C28.0556 17.4853 29.2159 14.8529 29.3757 12.0636C29.5354 9.27428 28.6835 6.52238 26.9816 4.33046C25.2797 2.13855 22.8464 0.659282 20.1438 0.173573C17.4413 -0.312137 14.6576 0.22954 12.3214 1.69574C9.98529 3.16193 8.25937 5.45054 7.47144 8.12695C6.6835 10.8034 6.88842 13.6812 8.04728 16.2139C9.20615 18.7466 11.2382 20.7578 13.7577 21.8656C16.2771 22.9735 19.1084 23.1007 21.7139 22.2232L21.3119 20.9857C19.0043 21.7629 16.4967 21.6502 14.2653 20.6691C12.0339 19.6879 10.2342 17.9066 9.20779 15.6635C8.18142 13.4204 7.99993 10.8716 8.69778 8.50117C9.39563 6.13077 10.9242 4.10383 12.9933 2.80527C15.0623 1.50672 17.5277 1.02697 19.9213 1.45715C22.3149 1.88732 24.4699 3.19746 25.9772 5.13876C27.4845 7.08006 28.2391 9.51733 28.0976 11.9877C27.9561 14.4581 26.9285 16.7896 25.2098 18.5394L26.115 19.461Z" fill="#7A33FF" stroke="#7A33FF" stroke-width="6" mask="url(#path-2-inside-2_39_150)"/>
<path d="M23.1031 17.1831L31.812 25.3218L32.5378 26" stroke="#7A33FF"/>
<mask id="path-4-inside-3_39_150" fill="white">
<path d="M19.9161 7.75C19.9161 9.26878 18.7068 10.5 17.215 10.5C15.7232 10.5 14.5139 9.26878 14.5139 7.75C14.5139 6.23122 15.7232 5 17.215 5C18.7068 5 19.9161 6.23122 19.9161 7.75ZM15.175 7.75C15.175 8.89707 16.0883 9.82696 17.215 9.82696C18.3417 9.82696 19.2551 8.89707 19.2551 7.75C19.2551 6.60293 18.3417 5.67304 17.215 5.67304C16.0883 5.67304 15.175 6.60293 15.175 7.75Z"/>
</mask>
<path d="M19.9161 7.75C19.9161 9.26878 18.7068 10.5 17.215 10.5C15.7232 10.5 14.5139 9.26878 14.5139 7.75C14.5139 6.23122 15.7232 5 17.215 5C18.7068 5 19.9161 6.23122 19.9161 7.75ZM15.175 7.75C15.175 8.89707 16.0883 9.82696 17.215 9.82696C18.3417 9.82696 19.2551 8.89707 19.2551 7.75C19.2551 6.60293 18.3417 5.67304 17.215 5.67304C16.0883 5.67304 15.175 6.60293 15.175 7.75Z" fill="#7A33FF" stroke="#7A33FF" stroke-width="2" mask="url(#path-4-inside-3_39_150)"/>
<path d="M12.8933 12.6578V14.1388C12.8933 14.6267 13.0848 15.095 13.4267 15.443C13.7766 15.7993 14.2551 16 14.7545 16H16.1346H19.0062C19.3709 16 19.6777 15.7266 19.7195 15.3644L19.9075 13.7376C19.9626 13.2611 20.6392 13.2206 20.7507 13.6872C20.7683 13.7611 20.8053 13.8289 20.8578 13.8838L22.2994 15.3923C22.4933 15.5952 22.7873 15.6673 23.053 15.5771C23.2864 15.4979 23.4632 15.3051 23.522 15.0658L23.553 14.9393C23.6414 14.5794 23.5146 14.2008 23.2272 13.9668L22.6454 13.4929C22.4482 13.3322 22.2811 13.1378 22.1519 12.9187L21.5369 11.875L21.3075 11.4596C20.9918 10.8878 20.3429 10.5853 19.702 10.711C19.4872 10.7532 19.2843 10.8417 19.1073 10.9704L18.9126 11.112C18.0513 11.7383 16.8946 11.7742 15.9962 11.2025L15.7868 11.0693C15.4848 10.8771 15.1341 10.775 14.7761 10.775C13.7363 10.775 12.8933 11.6179 12.8933 12.6578Z" fill="#7A33FF" stroke="#7A33FF"/>
<path d="M9.148 35.6V42.992H12.988V44H7.948V35.6H9.148ZM16.7727 44.084C16.1967 44.084 15.6847 43.952 15.2367 43.688C14.7967 43.416 14.4487 43.044 14.1927 42.572C13.9447 42.1 13.8207 41.56 13.8207 40.952C13.8207 40.368 13.9447 39.848 14.1927 39.392C14.4407 38.936 14.7807 38.576 15.2127 38.312C15.6527 38.048 16.1487 37.916 16.7007 37.916C17.2607 37.916 17.7567 38.04 18.1887 38.288C18.6207 38.528 18.9567 38.868 19.1967 39.308C19.4367 39.74 19.5527 40.24 19.5447 40.808C19.5447 40.904 19.5407 41.004 19.5327 41.108C19.5247 41.204 19.5127 41.312 19.4967 41.432H15.0567C15.0807 41.752 15.1687 42.036 15.3207 42.284C15.4807 42.524 15.6807 42.712 15.9207 42.848C16.1687 42.984 16.4487 43.052 16.7607 43.052C17.1607 43.052 17.5087 42.976 17.8047 42.824C18.1007 42.664 18.3087 42.452 18.4287 42.188L19.4127 42.536C19.1727 43.024 18.8207 43.404 18.3567 43.676C17.9007 43.948 17.3727 44.084 16.7727 44.084ZM18.3087 40.46C18.3087 40.172 18.2367 39.912 18.0927 39.68C17.9487 39.448 17.7527 39.268 17.5047 39.14C17.2647 39.004 16.9927 38.936 16.6887 38.936C16.4167 38.936 16.1647 39.004 15.9327 39.14C15.7087 39.268 15.5167 39.448 15.3567 39.68C15.2047 39.904 15.1087 40.164 15.0687 40.46H18.3087ZM20.9304 38H21.9624L22.0344 38.696C22.2264 38.448 22.4704 38.256 22.7664 38.12C23.0624 37.984 23.3904 37.916 23.7504 37.916C24.2144 37.916 24.6144 38.016 24.9504 38.216C25.2944 38.408 25.5584 38.696 25.7424 39.08C25.9344 39.464 26.0304 39.944 26.0304 40.52V44H24.9024V40.664C24.9024 40.104 24.7824 39.68 24.5424 39.392C24.3104 39.096 23.9704 38.948 23.5224 38.948C23.0584 38.948 22.6984 39.1 22.4424 39.404C22.1864 39.7 22.0584 40.14 22.0584 40.724V44H20.9304V38ZM28.329 42.104C28.385 42.344 28.481 42.532 28.617 42.668C28.753 42.804 28.913 42.904 29.097 42.968C29.289 43.024 29.489 43.052 29.697 43.052C30.057 43.052 30.337 42.98 30.537 42.836C30.737 42.692 30.837 42.512 30.837 42.296C30.837 42.112 30.773 41.968 30.645 41.864C30.525 41.752 30.361 41.664 30.153 41.6C29.953 41.536 29.737 41.476 29.505 41.42C29.297 41.364 29.069 41.3 28.821 41.228C28.581 41.156 28.353 41.06 28.137 40.94C27.929 40.812 27.757 40.652 27.621 40.46C27.485 40.26 27.417 40.008 27.417 39.704C27.417 39.344 27.513 39.032 27.705 38.768C27.905 38.496 28.177 38.288 28.521 38.144C28.873 37.992 29.269 37.916 29.709 37.916C30.221 37.916 30.669 38.028 31.053 38.252C31.445 38.468 31.729 38.796 31.905 39.236L30.885 39.572C30.829 39.42 30.737 39.296 30.609 39.2C30.481 39.104 30.333 39.04 30.165 39.008C30.005 38.968 29.845 38.948 29.685 38.948C29.381 38.948 29.129 39.008 28.929 39.128C28.729 39.248 28.629 39.424 28.629 39.656C28.629 39.784 28.661 39.892 28.725 39.98C28.789 40.06 28.877 40.128 28.989 40.184C29.109 40.232 29.249 40.276 29.409 40.316C29.569 40.356 29.741 40.4 29.925 40.448C30.165 40.52 30.409 40.6 30.657 40.688C30.905 40.768 31.133 40.872 31.341 41C31.549 41.128 31.717 41.296 31.845 41.504C31.973 41.712 32.041 41.968 32.049 42.272C32.049 42.624 31.949 42.936 31.749 43.208C31.557 43.48 31.281 43.696 30.921 43.856C30.569 44.008 30.149 44.084 29.661 44.084C29.069 44.084 28.565 43.952 28.149 43.688C27.733 43.424 27.453 43.016 27.309 42.464L28.329 42.104Z" fill="#7A33FF"/>
<path d="M20.7353 57H9C8.17157 57 7.5 56.3284 7.5 55.5C7.5 54.6716 8.17157 54 9 54H20.7353H31C31.8284 54 32.5 54.6716 32.5 55.5C32.5 56.3284 31.8284 57 31 57H20.7353Z" fill="#7A33FF" stroke="#7A33FF"/>
</svg>
