<svg width="40" height="58" viewBox="0 0 40 58" fill="none" xmlns="http://www.w3.org/2000/svg">
<path d="M24.3761 3.16494C24.6626 2.21758 26.004 2.21758 26.2905 3.16494L27.0002 5.5116C27.1292 5.93831 27.5252 6.22806 27.9709 6.22202L30.421 6.18884C31.397 6.17562 31.8118 7.42527 31.0216 7.99829L28.9751 9.48239C28.6225 9.73807 28.4759 10.1926 28.6127 10.6061L29.407 13.0066C29.7163 13.9414 28.6307 14.7134 27.8493 14.1144L25.9417 12.6521C25.5827 12.377 25.0838 12.377 24.7249 12.6521L22.8173 14.1144C22.0359 14.7134 20.9503 13.9414 21.2596 13.0066L22.0538 10.6061C22.1907 10.1926 22.0441 9.73807 21.6915 9.48239L19.645 7.9983C18.8548 7.42527 19.2695 6.17562 20.2456 6.18884L22.6957 6.22202C23.1414 6.22806 23.5373 5.93831 23.6664 5.5116L24.3761 3.16494Z" fill="#7A33FF"/>
<path d="M25.7948 17.8053C25.3962 19.7935 24.4321 21.6157 23.0244 23.0416C21.6167 24.4674 19.8286 25.4328 17.8863 25.8157C15.944 26.1986 13.9347 25.9818 12.1124 25.1926C10.2902 24.4035 8.73686 23.0775 7.6489 21.3824C6.56094 19.6872 5.98719 17.699 6.00022 15.6692C6.01324 13.6394 6.61245 11.6591 7.72207 9.97882C8.83169 8.29851 10.4019 6.99364 12.2341 6.22921C14.0663 5.46478 16.0782 5.27513 18.0154 5.68424L17.721 7.15307C16.0668 6.80374 14.3488 6.96568 12.7843 7.61841C11.2198 8.27115 9.87908 9.38536 8.9316 10.8201C7.98411 12.2549 7.47246 13.9459 7.46134 15.6791C7.45021 17.4123 7.94013 19.11 8.86912 20.5575C9.79812 22.0049 11.1245 23.1372 12.6804 23.811C14.2364 24.4848 15.9522 24.67 17.6107 24.343C19.2692 24.0161 20.796 23.1917 21.998 21.9742C23.2 20.7567 24.0233 19.2007 24.3636 17.503L25.7948 17.8053Z" fill="#7A33FF"/>
<rect x="16.0745" y="10.9473" width="1.18519" height="10.9474" rx="0.592593" fill="#7A33FF"/>
<rect x="11.3335" y="17.0293" width="1.21637" height="10.6667" rx="0.608187" transform="rotate(-90 11.3335 17.0293)" fill="#7A33FF"/>
<path d="M1.48 39.8C1.48 39.168 1.588 38.592 1.804 38.072C2.02 37.544 2.32 37.092 2.704 36.716C3.088 36.332 3.532 36.036 4.036 35.828C4.548 35.62 5.1 35.516 5.692 35.516C6.532 35.516 7.28 35.712 7.936 36.104C8.6 36.496 9.104 37.06 9.448 37.796L8.488 38.144C8.296 37.768 8.052 37.464 7.756 37.232C7.46 37 7.136 36.828 6.784 36.716C6.432 36.604 6.076 36.548 5.716 36.548C5.148 36.548 4.632 36.68 4.168 36.944C3.712 37.208 3.352 37.584 3.088 38.072C2.832 38.56 2.704 39.136 2.704 39.8C2.704 40.456 2.832 41.028 3.088 41.516C3.352 42.004 3.712 42.384 4.168 42.656C4.632 42.92 5.148 43.052 5.716 43.052C6.084 43.052 6.448 42.992 6.808 42.872C7.168 42.752 7.504 42.56 7.816 42.296C8.128 42.024 8.384 41.672 8.584 41.24L9.544 41.576C9.184 42.424 8.668 43.056 7.996 43.472C7.324 43.88 6.556 44.084 5.692 44.084C5.1 44.084 4.548 43.98 4.036 43.772C3.532 43.564 3.088 43.268 2.704 42.884C2.32 42.5 2.02 42.048 1.804 41.528C1.588 41 1.48 40.424 1.48 39.8ZM11.0281 38H12.0601L12.1321 38.804C12.3001 38.596 12.4921 38.424 12.7081 38.288C12.9321 38.144 13.1721 38.044 13.4281 37.988C13.6921 37.932 13.9641 37.936 14.2441 38V39.068C13.9801 39.004 13.7241 38.996 13.4761 39.044C13.2281 39.092 13.0041 39.196 12.8041 39.356C12.6121 39.508 12.4561 39.712 12.3361 39.968C12.2161 40.224 12.1561 40.532 12.1561 40.892V44H11.0281V38ZM17.9914 44.084C17.4154 44.084 16.9034 43.952 16.4554 43.688C16.0154 43.416 15.6674 43.044 15.4114 42.572C15.1634 42.1 15.0394 41.56 15.0394 40.952C15.0394 40.368 15.1634 39.848 15.4114 39.392C15.6594 38.936 15.9994 38.576 16.4314 38.312C16.8714 38.048 17.3674 37.916 17.9194 37.916C18.4794 37.916 18.9754 38.04 19.4074 38.288C19.8394 38.528 20.1754 38.868 20.4154 39.308C20.6554 39.74 20.7714 40.24 20.7634 40.808C20.7634 40.904 20.7594 41.004 20.7514 41.108C20.7434 41.204 20.7314 41.312 20.7154 41.432H16.2754C16.2994 41.752 16.3874 42.036 16.5394 42.284C16.6994 42.524 16.8994 42.712 17.1394 42.848C17.3874 42.984 17.6674 43.052 17.9794 43.052C18.3794 43.052 18.7274 42.976 19.0234 42.824C19.3194 42.664 19.5274 42.452 19.6474 42.188L20.6314 42.536C20.3914 43.024 20.0394 43.404 19.5754 43.676C19.1194 43.948 18.5914 44.084 17.9914 44.084ZM19.5274 40.46C19.5274 40.172 19.4554 39.912 19.3114 39.68C19.1674 39.448 18.9714 39.268 18.7234 39.14C18.4834 39.004 18.2114 38.936 17.9074 38.936C17.6354 38.936 17.3834 39.004 17.1514 39.14C16.9274 39.268 16.7354 39.448 16.5754 39.68C16.4234 39.904 16.3274 40.164 16.2874 40.46H19.5274ZM25.8092 44L25.7132 43.124C25.5292 43.428 25.2892 43.664 24.9932 43.832C24.7052 43.992 24.3292 44.072 23.8652 44.072C23.4332 44.072 23.0652 44.004 22.7612 43.868C22.4572 43.724 22.2212 43.528 22.0532 43.28C21.8932 43.024 21.8132 42.728 21.8132 42.392C21.8132 41.888 22.0012 41.472 22.3772 41.144C22.7532 40.808 23.2972 40.6 24.0092 40.52L25.7132 40.328V39.86C25.7132 39.604 25.6092 39.388 25.4012 39.212C25.1932 39.028 24.8932 38.936 24.5012 38.936C24.1332 38.936 23.8212 39.024 23.5652 39.2C23.3092 39.368 23.1372 39.62 23.0492 39.956L22.0412 39.596C22.1932 39.068 22.4892 38.656 22.9292 38.36C23.3772 38.064 23.9172 37.916 24.5492 37.916C25.3012 37.916 25.8732 38.104 26.2652 38.48C26.6572 38.856 26.8532 39.352 26.8532 39.968V44H25.8092ZM25.7132 41.252L24.0692 41.456C23.7172 41.504 23.4532 41.604 23.2772 41.756C23.1012 41.9 23.0132 42.092 23.0132 42.332C23.0132 42.556 23.0972 42.744 23.2652 42.896C23.4412 43.04 23.6852 43.112 23.9972 43.112C24.3812 43.112 24.7012 43.04 24.9572 42.896C25.2132 42.752 25.4012 42.552 25.5212 42.296C25.6492 42.032 25.7132 41.728 25.7132 41.384V41.252ZM28.8613 38V36.32H30.0013V38H31.5013V39.008H30.0013V41.96C30.0013 42.328 30.0733 42.588 30.2173 42.74C30.3693 42.892 30.5573 42.98 30.7813 43.004C31.0133 43.02 31.2533 43.012 31.5013 42.98V43.952C31.1733 44.024 30.8493 44.044 30.5293 44.012C30.2173 43.988 29.9333 43.9 29.6773 43.748C29.4293 43.596 29.2293 43.376 29.0773 43.088C28.9333 42.792 28.8613 42.416 28.8613 41.96V39.008H27.9973V38H28.8613ZM35.3703 44.084C34.7943 44.084 34.2823 43.952 33.8343 43.688C33.3943 43.416 33.0463 43.044 32.7903 42.572C32.5423 42.1 32.4183 41.56 32.4183 40.952C32.4183 40.368 32.5423 39.848 32.7903 39.392C33.0383 38.936 33.3783 38.576 33.8103 38.312C34.2503 38.048 34.7463 37.916 35.2983 37.916C35.8583 37.916 36.3543 38.04 36.7863 38.288C37.2183 38.528 37.5543 38.868 37.7943 39.308C38.0343 39.74 38.1503 40.24 38.1423 40.808C38.1423 40.904 38.1383 41.004 38.1303 41.108C38.1223 41.204 38.1103 41.312 38.0943 41.432H33.6543C33.6783 41.752 33.7663 42.036 33.9183 42.284C34.0783 42.524 34.2783 42.712 34.5183 42.848C34.7663 42.984 35.0463 43.052 35.3583 43.052C35.7583 43.052 36.1063 42.976 36.4023 42.824C36.6983 42.664 36.9063 42.452 37.0263 42.188L38.0103 42.536C37.7703 43.024 37.4183 43.404 36.9543 43.676C36.4983 43.948 35.9703 44.084 35.3703 44.084ZM36.9063 40.46C36.9063 40.172 36.8343 39.912 36.6903 39.68C36.5463 39.448 36.3503 39.268 36.1023 39.14C35.8623 39.004 35.5903 38.936 35.2863 38.936C35.0143 38.936 34.7623 39.004 34.5303 39.14C34.3063 39.268 34.1143 39.448 33.9543 39.68C33.8023 39.904 33.7063 40.164 33.6663 40.46H36.9063Z" fill="#7A33FF"/>
<path d="M20.2553 57H9.77689C9.04559 57 8.42087 56.4726 8.29816 55.7517C8.14228 54.8359 8.84789 54 9.77689 54H20.2553H30.3669C31.2455 54 31.936 54.7518 31.8615 55.6272C31.7954 56.4035 31.146 57 30.3669 57H20.2553Z" fill="#7A33FF" stroke="#7A33FF"/>
</svg>
