<svg width="40" height="59" viewBox="0 0 40 59" fill="none" xmlns="http://www.w3.org/2000/svg">
<rect width="40" height="50" transform="translate(0 0.466797)" fill="white"/>
<path d="M14.5 25.0224C14.5 25.8201 13.8533 26.4668 13.0556 26.4668H8.92593C7.86227 26.4668 7 25.6045 7 24.5409V15.8742V12.2888C7 10.3135 7.97224 8.46475 9.59972 7.34532L10.5 6.72607" stroke="#7A33FF" stroke-width="3"/>
<path d="M14.5 22.1335V20.6057C14.5 18.2585 16.4028 16.3557 18.75 16.3557C21.0972 16.3557 23 18.2585 23 20.6057V24.5409C23 25.6045 23.8623 26.4668 24.9259 26.4668H30.6299C31.49 26.4668 31.9123 25.4194 31.2928 24.8228C31.1057 24.6427 31 24.3941 31 24.1344V12.2331C31 10.2887 30.0578 8.46493 28.4721 7.33977L21.5 2.39272C20.0125 1.24681 17.9531 1.19999 16.4151 2.27712L13.5 4.31865" stroke="#7A33FF" stroke-width="3"/>
<path d="M13.5 26.4668H24.5" stroke="#7A33FF" stroke-width="3" stroke-linecap="round"/>
<path d="M3.948 36.0668H5.148V39.7028H9.372V36.0668H10.56V44.4668H9.372V40.7108H5.148V44.4668H3.948V36.0668ZM15.0115 44.5508C14.4435 44.5508 13.9315 44.4268 13.4755 44.1788C13.0275 43.9228 12.6755 43.5668 12.4195 43.1108C12.1635 42.6468 12.0355 42.1028 12.0355 41.4788C12.0355 40.8468 12.1675 40.2988 12.4315 39.8348C12.6955 39.3708 13.0555 39.0148 13.5115 38.7668C13.9675 38.5108 14.4795 38.3828 15.0475 38.3828C15.6155 38.3828 16.1275 38.5108 16.5835 38.7668C17.0475 39.0148 17.4115 39.3708 17.6755 39.8348C17.9395 40.2908 18.0715 40.8308 18.0715 41.4548C18.0715 42.0868 17.9355 42.6348 17.6635 43.0988C17.3995 43.5628 17.0355 43.9228 16.5715 44.1788C16.1075 44.4268 15.5875 44.5508 15.0115 44.5508ZM14.9995 43.5188C15.3195 43.5188 15.6195 43.4468 15.8995 43.3028C16.1795 43.1508 16.4075 42.9228 16.5835 42.6188C16.7675 42.3148 16.8595 41.9268 16.8595 41.4548C16.8595 40.9908 16.7715 40.6108 16.5955 40.3148C16.4275 40.0108 16.2035 39.7868 15.9235 39.6428C15.6435 39.4908 15.3435 39.4148 15.0235 39.4148C14.7115 39.4148 14.4195 39.4908 14.1475 39.6428C13.8835 39.7868 13.6675 40.0108 13.4995 40.3148C13.3315 40.6188 13.2475 41.0068 13.2475 41.4788C13.2475 41.9428 13.3275 42.3268 13.4875 42.6308C13.6555 42.9268 13.8715 43.1508 14.1355 43.3028C14.3995 43.4468 14.6875 43.5188 14.9995 43.5188ZM19.4499 38.4668H20.4819L20.5539 39.1628C20.7459 38.9228 20.9859 38.7348 21.2739 38.5988C21.5619 38.4548 21.8859 38.3828 22.2459 38.3828C22.6539 38.3828 23.0219 38.4748 23.3499 38.6588C23.6859 38.8348 23.9499 39.0988 24.1419 39.4508C24.3419 39.0988 24.6259 38.8348 24.9939 38.6588C25.3619 38.4748 25.7659 38.3828 26.2059 38.3828C26.6619 38.3828 27.0619 38.4828 27.4059 38.6828C27.7579 38.8748 28.0299 39.1628 28.2219 39.5468C28.4139 39.9308 28.5099 40.4108 28.5099 40.9868V44.4668H27.3699V41.1308C27.3699 40.5708 27.2499 40.1468 27.0099 39.8588C26.7699 39.5628 26.4259 39.4148 25.9779 39.4148C25.5219 39.4148 25.1619 39.5668 24.8979 39.8708C24.6339 40.1748 24.5019 40.6188 24.5019 41.2028V44.4668H23.3619V41.1308C23.3619 40.5708 23.2499 40.1468 23.0259 39.8588C22.8019 39.5628 22.4659 39.4148 22.0179 39.4148C21.5619 39.4148 21.2059 39.5668 20.9499 39.8708C20.7019 40.1748 20.5779 40.6188 20.5779 41.2028V44.4668H19.4499V38.4668ZM32.7297 44.5508C32.1537 44.5508 31.6417 44.4188 31.1937 44.1548C30.7537 43.8828 30.4057 43.5108 30.1497 43.0388C29.9017 42.5668 29.7777 42.0268 29.7777 41.4188C29.7777 40.8348 29.9017 40.3148 30.1497 39.8588C30.3977 39.4028 30.7377 39.0428 31.1697 38.7788C31.6097 38.5148 32.1057 38.3828 32.6577 38.3828C33.2177 38.3828 33.7137 38.5068 34.1457 38.7548C34.5777 38.9948 34.9137 39.3348 35.1537 39.7748C35.3937 40.2068 35.5097 40.7068 35.5017 41.2748C35.5017 41.3708 35.4977 41.4708 35.4897 41.5748C35.4817 41.6708 35.4697 41.7788 35.4537 41.8988H31.0137C31.0377 42.2188 31.1257 42.5028 31.2777 42.7508C31.4377 42.9908 31.6377 43.1788 31.8777 43.3148C32.1257 43.4508 32.4057 43.5188 32.7177 43.5188C33.1177 43.5188 33.4657 43.4428 33.7617 43.2908C34.0577 43.1308 34.2657 42.9188 34.3857 42.6548L35.3697 43.0028C35.1297 43.4908 34.7777 43.8708 34.3137 44.1428C33.8577 44.4148 33.3297 44.5508 32.7297 44.5508ZM34.2657 40.9268C34.2657 40.6388 34.1937 40.3788 34.0497 40.1468C33.9057 39.9148 33.7097 39.7348 33.4617 39.6068C33.2217 39.4708 32.9497 39.4028 32.6457 39.4028C32.3737 39.4028 32.1217 39.4708 31.8897 39.6068C31.6657 39.7348 31.4737 39.9148 31.3137 40.1468C31.1617 40.3708 31.0657 40.6308 31.0257 40.9268H34.2657Z" fill="#7A33FF"/>
<path d="M6.54426 58.4668H34.109C34.6839 58.4668 35.2195 58.1751 35.5314 57.6923C35.8258 57.2365 35.8839 56.6674 35.6879 56.1615L35.5261 55.744C35.2277 54.9742 34.4869 54.4668 33.6613 54.4668H6.54426C5.62161 54.4668 4.8187 55.098 4.60082 55.9945C4.29484 57.2536 5.24854 58.4668 6.54426 58.4668Z" fill="#7A33FF" stroke="#7A33FF"/>
</svg>
