<svg width="40" height="59" viewBox="0 0 40 59" fill="none" xmlns="http://www.w3.org/2000/svg">
<path d="M7 26.75V13.75C7 6.5703 12.8203 0.75 20 0.75C27.1797 0.75 33 6.5703 33 13.75V26.75" stroke="#FF9999" stroke-width="1.5" stroke-linecap="round"/>
<path d="M29.75 16.9003V13.75C29.75 8.36522 25.3848 4 20 4C14.6152 4 10.25 8.36522 10.25 13.75V18.0367C10.25 18.5943 10.3035 19.1506 10.4098 19.6979C11.2051 23.7931 14.7916 26.75 18.9633 26.75H19.9003C25.3401 26.75 29.75 22.3401 29.75 16.9003Z" fill="#FF9999" stroke="#FF9999" stroke-width="1.5" stroke-linecap="round"/>
<path d="M12.9583 22.75L14.3702 22.0984C18.2362 20.314 22.731 20.536 26.4024 22.6927L26.5 22.75" stroke="#ED6E6E" stroke-width="1.5" stroke-linecap="round"/>
<path d="M10.772 38.858C10.772 38.402 10.636 38.038 10.364 37.766C10.092 37.494 9.66 37.358 9.068 37.358H7.148V40.346H9.08C9.472 40.346 9.792 40.286 10.04 40.166C10.288 40.038 10.472 39.862 10.592 39.638C10.712 39.414 10.772 39.154 10.772 38.858ZM9.068 36.35C9.732 36.35 10.276 36.466 10.7 36.698C11.132 36.922 11.452 37.222 11.66 37.598C11.876 37.974 11.984 38.394 11.984 38.858C11.984 39.162 11.932 39.462 11.828 39.758C11.724 40.054 11.556 40.326 11.324 40.574C11.092 40.814 10.788 41.006 10.412 41.15C10.044 41.286 9.6 41.354 9.08 41.354H7.148V44.75H5.948V36.35H9.068ZM9.836 40.946L12.152 44.75H10.796L8.564 40.946H9.836ZM16.0969 44.834C15.5209 44.834 15.0089 44.702 14.5609 44.438C14.1209 44.166 13.7729 43.794 13.5169 43.322C13.2689 42.85 13.1449 42.31 13.1449 41.702C13.1449 41.118 13.2689 40.598 13.5169 40.142C13.7649 39.686 14.1049 39.326 14.5369 39.062C14.9769 38.798 15.4729 38.666 16.0249 38.666C16.5849 38.666 17.0809 38.79 17.5129 39.038C17.9449 39.278 18.2809 39.618 18.5209 40.058C18.7609 40.49 18.8769 40.99 18.8689 41.558C18.8689 41.654 18.8649 41.754 18.8569 41.858C18.8489 41.954 18.8369 42.062 18.8209 42.182H14.3809C14.4049 42.502 14.4929 42.786 14.6449 43.034C14.8049 43.274 15.0049 43.462 15.2449 43.598C15.4929 43.734 15.7729 43.802 16.0849 43.802C16.4849 43.802 16.8329 43.726 17.1289 43.574C17.4249 43.414 17.6329 43.202 17.7529 42.938L18.7369 43.286C18.4969 43.774 18.1449 44.154 17.6809 44.426C17.2249 44.698 16.6969 44.834 16.0969 44.834ZM17.6329 41.21C17.6329 40.922 17.5609 40.662 17.4169 40.43C17.2729 40.198 17.0769 40.018 16.8289 39.89C16.5889 39.754 16.3169 39.686 16.0129 39.686C15.7409 39.686 15.4889 39.754 15.2569 39.89C15.0329 40.018 14.8409 40.198 14.6809 40.43C14.5289 40.654 14.4329 40.914 14.3929 41.21H17.6329ZM22.8586 44.834C22.2826 44.834 21.7706 44.702 21.3226 44.438C20.8826 44.166 20.5346 43.794 20.2786 43.322C20.0306 42.85 19.9066 42.31 19.9066 41.702C19.9066 41.118 20.0306 40.598 20.2786 40.142C20.5266 39.686 20.8666 39.326 21.2986 39.062C21.7386 38.798 22.2346 38.666 22.7866 38.666C23.3466 38.666 23.8426 38.79 24.2746 39.038C24.7066 39.278 25.0426 39.618 25.2826 40.058C25.5226 40.49 25.6386 40.99 25.6306 41.558C25.6306 41.654 25.6266 41.754 25.6186 41.858C25.6106 41.954 25.5986 42.062 25.5826 42.182H21.1426C21.1666 42.502 21.2546 42.786 21.4066 43.034C21.5666 43.274 21.7666 43.462 22.0066 43.598C22.2546 43.734 22.5346 43.802 22.8466 43.802C23.2466 43.802 23.5946 43.726 23.8906 43.574C24.1866 43.414 24.3946 43.202 24.5146 42.938L25.4986 43.286C25.2586 43.774 24.9066 44.154 24.4426 44.426C23.9866 44.698 23.4586 44.834 22.8586 44.834ZM24.3946 41.21C24.3946 40.922 24.3226 40.662 24.1786 40.43C24.0346 40.198 23.8386 40.018 23.5906 39.89C23.3506 39.754 23.0786 39.686 22.7746 39.686C22.5026 39.686 22.2506 39.754 22.0186 39.89C21.7946 40.018 21.6026 40.198 21.4426 40.43C21.2906 40.654 21.1946 40.914 21.1546 41.21H24.3946ZM27.0163 36.11H28.1443V44.75H27.0163V36.11ZM30.536 42.854C30.592 43.094 30.688 43.282 30.824 43.418C30.96 43.554 31.12 43.654 31.304 43.718C31.496 43.774 31.696 43.802 31.904 43.802C32.264 43.802 32.544 43.73 32.744 43.586C32.944 43.442 33.044 43.262 33.044 43.046C33.044 42.862 32.98 42.718 32.852 42.614C32.732 42.502 32.568 42.414 32.36 42.35C32.16 42.286 31.944 42.226 31.712 42.17C31.504 42.114 31.276 42.05 31.028 41.978C30.788 41.906 30.56 41.81 30.344 41.69C30.136 41.562 29.964 41.402 29.828 41.21C29.692 41.01 29.624 40.758 29.624 40.454C29.624 40.094 29.72 39.782 29.912 39.518C30.112 39.246 30.384 39.038 30.728 38.894C31.08 38.742 31.476 38.666 31.916 38.666C32.428 38.666 32.876 38.778 33.26 39.002C33.652 39.218 33.936 39.546 34.112 39.986L33.092 40.322C33.036 40.17 32.944 40.046 32.816 39.95C32.688 39.854 32.54 39.79 32.372 39.758C32.212 39.718 32.052 39.698 31.892 39.698C31.588 39.698 31.336 39.758 31.136 39.878C30.936 39.998 30.836 40.174 30.836 40.406C30.836 40.534 30.868 40.642 30.932 40.73C30.996 40.81 31.084 40.878 31.196 40.934C31.316 40.982 31.456 41.026 31.616 41.066C31.776 41.106 31.948 41.15 32.132 41.198C32.372 41.27 32.616 41.35 32.864 41.438C33.112 41.518 33.34 41.622 33.548 41.75C33.756 41.878 33.924 42.046 34.052 42.254C34.18 42.462 34.248 42.718 34.256 43.022C34.256 43.374 34.156 43.686 33.956 43.958C33.764 44.23 33.488 44.446 33.128 44.606C32.776 44.758 32.356 44.834 31.868 44.834C31.276 44.834 30.772 44.702 30.356 44.438C29.94 44.174 29.66 43.766 29.516 43.214L30.536 42.854Z" fill="#FB3546"/>
<path d="M21.0011 57.75H9.5C8.67157 57.75 8 57.0784 8 56.25C8 55.4216 8.67157 54.75 9.5 54.75H21.0011H30.2304C30.964 54.75 31.59 55.2806 31.7102 56.0043C31.8619 56.9183 31.157 57.75 30.2304 57.75H21.0011Z" fill="#FF9A9A" stroke="#FF9999"/>
</svg>
