<svg width="40" height="50" viewBox="0 0 40 50" fill="none" xmlns="http://www.w3.org/2000/svg">
<path d="M24.3761 3.16494C24.6626 2.21758 26.004 2.21758 26.2905 3.16494L27.0002 5.5116C27.1292 5.93831 27.5252 6.22806 27.9709 6.22202L30.421 6.18884C31.397 6.17562 31.8118 7.42527 31.0216 7.99829L28.9751 9.48239C28.6225 9.73807 28.4759 10.1926 28.6127 10.6061L29.407 13.0066C29.7163 13.9414 28.6307 14.7134 27.8493 14.1144L25.9417 12.6521C25.5827 12.377 25.0838 12.377 24.7249 12.6521L22.8173 14.1144C22.0359 14.7134 20.9503 13.9414 21.2596 13.0066L22.0538 10.6061C22.1907 10.1926 22.0441 9.73807 21.6915 9.48239L19.645 7.9983C18.8548 7.42527 19.2695 6.17562 20.2456 6.18884L22.6957 6.22202C23.1414 6.22806 23.5373 5.93831 23.6664 5.5116L24.3761 3.16494Z" fill="black"/>
<path d="M25.7948 17.8053C25.3962 19.7935 24.4321 21.6157 23.0244 23.0416C21.6167 24.4674 19.8286 25.4328 17.8863 25.8157C15.944 26.1986 13.9347 25.9818 12.1124 25.1926C10.2902 24.4035 8.73686 23.0775 7.6489 21.3824C6.56094 19.6872 5.98719 17.699 6.00022 15.6692C6.01324 13.6394 6.61245 11.6591 7.72207 9.97882C8.83169 8.29851 10.4019 6.99364 12.2341 6.22921C14.0663 5.46478 16.0782 5.27513 18.0154 5.68424L17.721 7.15307C16.0668 6.80374 14.3488 6.96568 12.7843 7.61841C11.2198 8.27115 9.87908 9.38536 8.9316 10.8201C7.98411 12.2549 7.47246 13.9459 7.46134 15.6791C7.45021 17.4123 7.94013 19.11 8.86912 20.5575C9.79812 22.0049 11.1245 23.1372 12.6804 23.811C14.2364 24.4848 15.9522 24.67 17.6107 24.343C19.2692 24.0161 20.796 23.1917 21.998 21.9742C23.2 20.7567 24.0233 19.2007 24.3636 17.503L25.7948 17.8053Z" fill="black"/>
<rect x="16.0745" y="10.9473" width="1.18519" height="10.9474" rx="0.592593" fill="black"/>
<rect x="11.3335" y="17.0293" width="1.21637" height="10.6667" rx="0.608187" transform="rotate(-90 11.3335 17.0293)" fill="black"/>
<path d="M1.54 42.8C1.54 42.168 1.64 41.592 1.84 41.072C2.04 40.544 2.324 40.092 2.692 39.716C3.068 39.332 3.504 39.036 4 38.828C4.496 38.62 5.036 38.516 5.62 38.516C6.516 38.516 7.284 38.724 7.924 39.14C8.572 39.548 9.06 40.116 9.388 40.844L8.788 41.072C8.612 40.664 8.368 40.32 8.056 40.04C7.744 39.76 7.38 39.548 6.964 39.404C6.556 39.252 6.108 39.176 5.62 39.176C4.996 39.176 4.428 39.32 3.916 39.608C3.412 39.896 3.012 40.312 2.716 40.856C2.428 41.392 2.284 42.04 2.284 42.8C2.284 43.552 2.428 44.2 2.716 44.744C3.012 45.28 3.412 45.696 3.916 45.992C4.428 46.28 4.996 46.424 5.62 46.424C6.116 46.432 6.572 46.356 6.988 46.196C7.412 46.036 7.784 45.8 8.104 45.488C8.424 45.176 8.676 44.804 8.86 44.372L9.46 44.588C9.132 45.388 8.64 46.004 7.984 46.436C7.328 46.868 6.54 47.084 5.62 47.084C5.036 47.084 4.496 46.98 4 46.772C3.504 46.564 3.068 46.268 2.692 45.884C2.324 45.5 2.04 45.048 1.84 44.528C1.64 44 1.54 43.424 1.54 42.8ZM11.1123 41H11.7483L11.7843 42.068C11.9203 41.82 12.1043 41.604 12.3363 41.42C12.5683 41.236 12.8323 41.104 13.1283 41.024C13.4243 40.944 13.7483 40.936 14.1003 41V41.684C13.7563 41.612 13.4443 41.616 13.1643 41.696C12.8843 41.768 12.6403 41.9 12.4323 42.092C12.2323 42.284 12.0763 42.524 11.9643 42.812C11.8523 43.1 11.7963 43.428 11.7963 43.796V47H11.1123V41ZM17.838 47.084C17.278 47.084 16.782 46.952 16.35 46.688C15.926 46.416 15.594 46.044 15.354 45.572C15.114 45.1 14.994 44.556 14.994 43.94C14.994 43.356 15.114 42.836 15.354 42.38C15.602 41.924 15.938 41.568 16.362 41.312C16.786 41.048 17.27 40.916 17.814 40.916C18.35 40.916 18.826 41.036 19.242 41.276C19.666 41.508 19.994 41.832 20.226 42.248C20.466 42.656 20.582 43.124 20.574 43.652C20.574 43.732 20.57 43.82 20.562 43.916C20.562 44.004 20.558 44.1 20.55 44.204H15.738C15.746 44.644 15.842 45.032 16.026 45.368C16.21 45.704 16.454 45.968 16.758 46.16C17.07 46.344 17.422 46.436 17.814 46.436C18.31 46.436 18.734 46.336 19.086 46.136C19.446 45.928 19.706 45.636 19.866 45.26L20.454 45.5C20.23 46.012 19.89 46.404 19.434 46.676C18.978 46.948 18.446 47.084 17.838 47.084ZM19.83 43.604C19.838 43.204 19.758 42.852 19.59 42.548C19.422 42.244 19.182 42.004 18.87 41.828C18.566 41.652 18.206 41.564 17.79 41.564C17.422 41.564 17.09 41.652 16.794 41.828C16.498 42.004 16.254 42.248 16.062 42.56C15.878 42.864 15.77 43.212 15.738 43.604H19.83ZM25.9685 47L25.9205 45.728C25.7525 46.16 25.4885 46.496 25.1285 46.736C24.7765 46.968 24.3285 47.084 23.7845 47.084C23.3525 47.084 22.9845 47.02 22.6805 46.892C22.3765 46.756 22.1405 46.564 21.9725 46.316C21.8125 46.068 21.7325 45.772 21.7325 45.428C21.7325 44.924 21.9205 44.516 22.2965 44.204C22.6725 43.884 23.2325 43.688 23.9765 43.616L25.9205 43.4V42.896C25.9205 42.48 25.7805 42.156 25.5005 41.924C25.2285 41.684 24.8485 41.564 24.3605 41.564C23.8965 41.564 23.5085 41.672 23.1965 41.888C22.8925 42.104 22.6885 42.412 22.5845 42.812L21.9605 42.596C22.1125 42.06 22.3965 41.648 22.8125 41.36C23.2285 41.064 23.7485 40.916 24.3725 40.916C25.0765 40.916 25.6245 41.092 26.0165 41.444C26.4085 41.796 26.6045 42.28 26.6045 42.896V47H25.9685ZM25.9205 43.988L23.9645 44.216C23.4525 44.272 23.0725 44.4 22.8245 44.6C22.5845 44.792 22.4645 45.056 22.4645 45.392C22.4645 45.728 22.5805 45.992 22.8125 46.184C23.0525 46.376 23.3925 46.472 23.8325 46.472C24.2965 46.472 24.6805 46.38 24.9845 46.196C25.2965 46.004 25.5285 45.744 25.6805 45.416C25.8405 45.08 25.9205 44.704 25.9205 44.288V43.988ZM28.8287 41V39.32H29.5127V41H31.1927V41.636H29.5127V45.176C29.5127 45.528 29.5927 45.8 29.7527 45.992C29.9207 46.184 30.1327 46.308 30.3887 46.364C30.6447 46.412 30.9127 46.412 31.1927 46.364V46.952C30.9047 47.024 30.6167 47.044 30.3287 47.012C30.0487 46.98 29.7927 46.892 29.5607 46.748C29.3367 46.596 29.1567 46.392 29.0207 46.136C28.8927 45.88 28.8287 45.56 28.8287 45.176V41.636H27.8927V41H28.8287ZM35.0528 47.084C34.4928 47.084 33.9968 46.952 33.5648 46.688C33.1408 46.416 32.8088 46.044 32.5688 45.572C32.3288 45.1 32.2088 44.556 32.2088 43.94C32.2088 43.356 32.3288 42.836 32.5688 42.38C32.8168 41.924 33.1528 41.568 33.5768 41.312C34.0008 41.048 34.4848 40.916 35.0288 40.916C35.5648 40.916 36.0408 41.036 36.4568 41.276C36.8808 41.508 37.2088 41.832 37.4408 42.248C37.6808 42.656 37.7968 43.124 37.7888 43.652C37.7888 43.732 37.7848 43.82 37.7768 43.916C37.7768 44.004 37.7728 44.1 37.7648 44.204H32.9528C32.9608 44.644 33.0568 45.032 33.2408 45.368C33.4248 45.704 33.6688 45.968 33.9728 46.16C34.2848 46.344 34.6368 46.436 35.0288 46.436C35.5248 46.436 35.9488 46.336 36.3008 46.136C36.6608 45.928 36.9208 45.636 37.0808 45.26L37.6688 45.5C37.4448 46.012 37.1048 46.404 36.6488 46.676C36.1928 46.948 35.6608 47.084 35.0528 47.084ZM37.0448 43.604C37.0528 43.204 36.9728 42.852 36.8048 42.548C36.6368 42.244 36.3968 42.004 36.0848 41.828C35.7808 41.652 35.4208 41.564 35.0048 41.564C34.6368 41.564 34.3048 41.652 34.0088 41.828C33.7128 42.004 33.4688 42.248 33.2768 42.56C33.0928 42.864 32.9848 43.212 32.9528 43.604H37.0448Z" fill="black"/>
</svg>
