<svg width="40" height="50" viewBox="0 0 40 50" fill="none" xmlns="http://www.w3.org/2000/svg">
<mask id="path-1-inside-1_39_107" fill="white">
<path d="M24.4481 17.7639C25.9801 16.2041 26.8961 14.1259 27.0222 11.9238C27.1484 9.7217 26.4758 7.54915 25.1322 5.81869C23.7886 4.08823 21.8676 2.92039 19.734 2.53693C17.6003 2.15348 15.4027 2.58112 13.5584 3.73864C11.714 4.89617 10.3515 6.70296 9.72942 8.81591C9.10737 10.9289 9.26915 13.2008 10.184 15.2003C11.0989 17.1998 12.7032 18.7877 14.6922 19.6623C16.6813 20.5368 18.9165 20.6373 20.9735 19.9445L20.5256 18.5661C18.8005 19.1471 16.9258 19.0628 15.2577 18.3293C13.5896 17.5958 12.2441 16.2642 11.4768 14.5872C10.7095 12.9103 10.5738 11.0049 11.0955 9.23278C11.6172 7.4607 12.76 5.94539 14.3067 4.97461C15.8535 4.00382 17.6966 3.64517 19.486 3.96676C21.2755 4.28836 22.8866 5.2678 24.0134 6.71909C25.1402 8.17038 25.7043 9.99244 25.5985 11.8393C25.4928 13.6861 24.7245 15.4291 23.4396 16.7372L24.4481 17.7639Z"/>
</mask>
<path d="M24.4481 17.7639C25.9801 16.2041 26.8961 14.1259 27.0222 11.9238C27.1484 9.7217 26.4758 7.54915 25.1322 5.81869C23.7886 4.08823 21.8676 2.92039 19.734 2.53693C17.6003 2.15348 15.4027 2.58112 13.5584 3.73864C11.714 4.89617 10.3515 6.70296 9.72942 8.81591C9.10737 10.9289 9.26915 13.2008 10.184 15.2003C11.0989 17.1998 12.7032 18.7877 14.6922 19.6623C16.6813 20.5368 18.9165 20.6373 20.9735 19.9445L20.5256 18.5661C18.8005 19.1471 16.9258 19.0628 15.2577 18.3293C13.5896 17.5958 12.2441 16.2642 11.4768 14.5872C10.7095 12.9103 10.5738 11.0049 11.0955 9.23278C11.6172 7.4607 12.76 5.94539 14.3067 4.97461C15.8535 4.00382 17.6966 3.64517 19.486 3.96676C21.2755 4.28836 22.8866 5.2678 24.0134 6.71909C25.1402 8.17038 25.7043 9.99244 25.5985 11.8393C25.4928 13.6861 24.7245 15.4291 23.4396 16.7372L24.4481 17.7639Z" fill="black" stroke="black" stroke-width="2" mask="url(#path-1-inside-1_39_107)"/>
<mask id="path-2-inside-2_39_107" fill="white">
<path d="M26.115 19.461C28.0556 17.4853 29.2159 14.8529 29.3757 12.0636C29.5354 9.27428 28.6835 6.52238 26.9816 4.33046C25.2797 2.13855 22.8464 0.659282 20.1438 0.173573C17.4413 -0.312137 14.6576 0.22954 12.3214 1.69574C9.98529 3.16193 8.25937 5.45054 7.47144 8.12695C6.6835 10.8034 6.88842 13.6812 8.04728 16.2139C9.20615 18.7466 11.2382 20.7578 13.7577 21.8656C16.2771 22.9735 19.1084 23.1007 21.7139 22.2232L21.3119 20.9857C19.0043 21.7629 16.4967 21.6502 14.2653 20.6691C12.0339 19.6879 10.2342 17.9066 9.20779 15.6635C8.18142 13.4204 7.99993 10.8716 8.69778 8.50117C9.39563 6.13077 10.9242 4.10383 12.9933 2.80527C15.0623 1.50672 17.5277 1.02697 19.9213 1.45715C22.3149 1.88732 24.4699 3.19746 25.9772 5.13876C27.4845 7.08006 28.2391 9.51733 28.0976 11.9877C27.9561 14.4581 26.9285 16.7896 25.2098 18.5394L26.115 19.461Z"/>
</mask>
<path d="M26.115 19.461C28.0556 17.4853 29.2159 14.8529 29.3757 12.0636C29.5354 9.27428 28.6835 6.52238 26.9816 4.33046C25.2797 2.13855 22.8464 0.659282 20.1438 0.173573C17.4413 -0.312137 14.6576 0.22954 12.3214 1.69574C9.98529 3.16193 8.25937 5.45054 7.47144 8.12695C6.6835 10.8034 6.88842 13.6812 8.04728 16.2139C9.20615 18.7466 11.2382 20.7578 13.7577 21.8656C16.2771 22.9735 19.1084 23.1007 21.7139 22.2232L21.3119 20.9857C19.0043 21.7629 16.4967 21.6502 14.2653 20.6691C12.0339 19.6879 10.2342 17.9066 9.20779 15.6635C8.18142 13.4204 7.99993 10.8716 8.69778 8.50117C9.39563 6.13077 10.9242 4.10383 12.9933 2.80527C15.0623 1.50672 17.5277 1.02697 19.9213 1.45715C22.3149 1.88732 24.4699 3.19746 25.9772 5.13876C27.4845 7.08006 28.2391 9.51733 28.0976 11.9877C27.9561 14.4581 26.9285 16.7896 25.2098 18.5394L26.115 19.461Z" fill="black" stroke="black" stroke-width="2" mask="url(#path-2-inside-2_39_107)"/>
<path d="M23.1031 17.1831L31.812 25.3218L32.5378 26" stroke="black" stroke-width="1.5"/>
<mask id="path-4-inside-3_39_107" fill="white">
<path d="M19.9161 7.75C19.9161 9.26878 18.7068 10.5 17.215 10.5C15.7232 10.5 14.5139 9.26878 14.5139 7.75C14.5139 6.23122 15.7232 5 17.215 5C18.7068 5 19.9161 6.23122 19.9161 7.75ZM15.175 7.75C15.175 8.89707 16.0883 9.82696 17.215 9.82696C18.3417 9.82696 19.2551 8.89707 19.2551 7.75C19.2551 6.60293 18.3417 5.67304 17.215 5.67304C16.0883 5.67304 15.175 6.60293 15.175 7.75Z"/>
</mask>
<path d="M19.9161 7.75C19.9161 9.26878 18.7068 10.5 17.215 10.5C15.7232 10.5 14.5139 9.26878 14.5139 7.75C14.5139 6.23122 15.7232 5 17.215 5C18.7068 5 19.9161 6.23122 19.9161 7.75ZM15.175 7.75C15.175 8.89707 16.0883 9.82696 17.215 9.82696C18.3417 9.82696 19.2551 8.89707 19.2551 7.75C19.2551 6.60293 18.3417 5.67304 17.215 5.67304C16.0883 5.67304 15.175 6.60293 15.175 7.75Z" fill="black" stroke="black" stroke-width="3" mask="url(#path-4-inside-3_39_107)"/>
<path d="M12.8933 12.6578V14.1388C12.8933 14.6267 13.0848 15.095 13.4267 15.443C13.7766 15.7993 14.2551 16 14.7545 16H16.1346H19.0062C19.3709 16 19.6777 15.7266 19.7195 15.3644L19.9075 13.7376C19.9626 13.2611 20.6392 13.2206 20.7507 13.6872C20.7683 13.7611 20.8053 13.8289 20.8578 13.8838L22.2994 15.3923C22.4933 15.5952 22.7873 15.6673 23.053 15.5771C23.2864 15.4979 23.4632 15.3051 23.522 15.0658L23.553 14.9393C23.6414 14.5794 23.5146 14.2008 23.2272 13.9668L22.6454 13.4929C22.4482 13.3322 22.2811 13.1378 22.1519 12.9187L21.5369 11.875L21.3075 11.4596C20.9918 10.8878 20.3429 10.5853 19.702 10.711C19.4872 10.7532 19.2843 10.8417 19.1073 10.9704L18.9126 11.112C18.0513 11.7383 16.8946 11.7742 15.9962 11.2025L15.7868 11.0693C15.4848 10.8771 15.1341 10.775 14.7761 10.775C13.7363 10.775 12.8933 11.6179 12.8933 12.6578Z" fill="black" stroke="black" stroke-width="0.8"/>
<path d="M8.788 38.6V46.364H12.796V47H8.056V38.6H8.788ZM16.5723 47.084C16.0123 47.084 15.5163 46.952 15.0843 46.688C14.6603 46.416 14.3283 46.044 14.0883 45.572C13.8483 45.1 13.7283 44.556 13.7283 43.94C13.7283 43.356 13.8483 42.836 14.0883 42.38C14.3363 41.924 14.6723 41.568 15.0963 41.312C15.5203 41.048 16.0043 40.916 16.5483 40.916C17.0843 40.916 17.5603 41.036 17.9763 41.276C18.4003 41.508 18.7283 41.832 18.9603 42.248C19.2003 42.656 19.3163 43.124 19.3083 43.652C19.3083 43.732 19.3043 43.82 19.2963 43.916C19.2963 44.004 19.2923 44.1 19.2843 44.204H14.4723C14.4803 44.644 14.5763 45.032 14.7603 45.368C14.9443 45.704 15.1883 45.968 15.4923 46.16C15.8043 46.344 16.1563 46.436 16.5483 46.436C17.0443 46.436 17.4683 46.336 17.8203 46.136C18.1803 45.928 18.4403 45.636 18.6003 45.26L19.1883 45.5C18.9643 46.012 18.6243 46.404 18.1683 46.676C17.7123 46.948 17.1803 47.084 16.5723 47.084ZM18.5643 43.604C18.5723 43.204 18.4923 42.852 18.3243 42.548C18.1563 42.244 17.9163 42.004 17.6043 41.828C17.3003 41.652 16.9403 41.564 16.5243 41.564C16.1563 41.564 15.8243 41.652 15.5283 41.828C15.2323 42.004 14.9883 42.248 14.7963 42.56C14.6123 42.864 14.5043 43.212 14.4723 43.604H18.5643ZM20.8389 41H21.4749L21.5109 42.092C21.6789 41.724 21.9269 41.436 22.2549 41.228C22.5909 41.02 22.9989 40.916 23.4789 40.916C23.9269 40.916 24.3229 41.016 24.6669 41.216C25.0189 41.408 25.2909 41.7 25.4829 42.092C25.6829 42.476 25.7829 42.968 25.7829 43.568V47H25.0989V43.64C25.0989 42.96 24.9469 42.44 24.6429 42.08C24.3389 41.72 23.9149 41.54 23.3709 41.54C22.7949 41.54 22.3429 41.732 22.0149 42.116C21.6869 42.5 21.5229 43.072 21.5229 43.832V47H20.8389V41ZM27.8646 45.248C27.9206 45.512 28.0126 45.732 28.1406 45.908C28.2766 46.084 28.4566 46.216 28.6806 46.304C28.9046 46.392 29.1726 46.436 29.4846 46.436C29.9806 46.436 30.3526 46.34 30.6006 46.148C30.8566 45.948 30.9846 45.7 30.9846 45.404C30.9846 45.156 30.9086 44.96 30.7566 44.816C30.6126 44.672 30.4206 44.556 30.1806 44.468C29.9406 44.38 29.6806 44.304 29.4006 44.24C29.2086 44.192 28.9926 44.136 28.7526 44.072C28.5126 44.008 28.2806 43.92 28.0566 43.808C27.8406 43.688 27.6606 43.536 27.5166 43.352C27.3806 43.16 27.3126 42.908 27.3126 42.596C27.3126 42.26 27.4046 41.968 27.5886 41.72C27.7726 41.464 28.0246 41.268 28.3446 41.132C28.6726 40.988 29.0446 40.916 29.4606 40.916C29.9566 40.916 30.3966 41.024 30.7806 41.24C31.1646 41.456 31.4286 41.8 31.5726 42.272L30.9366 42.488C30.8646 42.232 30.7446 42.04 30.5766 41.912C30.4166 41.776 30.2366 41.684 30.0366 41.636C29.8366 41.588 29.6406 41.564 29.4486 41.564C29.0246 41.564 28.6846 41.652 28.4286 41.828C28.1726 41.996 28.0446 42.24 28.0446 42.56C28.0446 42.744 28.0886 42.896 28.1766 43.016C28.2646 43.136 28.3806 43.232 28.5246 43.304C28.6766 43.376 28.8486 43.436 29.0406 43.484C29.2326 43.532 29.4326 43.58 29.6406 43.628C29.8726 43.684 30.1086 43.752 30.3486 43.832C30.5886 43.912 30.8126 44.016 31.0206 44.144C31.2286 44.272 31.3966 44.436 31.5246 44.636C31.6526 44.836 31.7166 45.088 31.7166 45.392C31.7166 45.736 31.6206 46.036 31.4286 46.292C31.2446 46.548 30.9846 46.744 30.6486 46.88C30.3206 47.016 29.9326 47.084 29.4846 47.084C28.8766 47.084 28.3766 46.952 27.9846 46.688C27.6006 46.416 27.3446 46.008 27.2166 45.464L27.8646 45.248Z" fill="black"/>
</svg>
