<svg width="40" height="51" viewBox="0 0 40 51" fill="none" xmlns="http://www.w3.org/2000/svg">
<rect width="40" height="50" transform="translate(0 0.466797)" fill="white"/>
<path d="M14.5 25.0224C14.5 25.8201 13.8533 26.4668 13.0556 26.4668H8.92593C7.86227 26.4668 7 25.6045 7 24.5409V15.8742V12.2888C7 10.3135 7.97224 8.46475 9.59972 7.34532L10.5 6.72607" stroke="black" stroke-width="3"/>
<path d="M14.5 22.1335V20.6057C14.5 18.2585 16.4028 16.3557 18.75 16.3557C21.0972 16.3557 23 18.2585 23 20.6057V24.5409C23 25.6045 23.8623 26.4668 24.9259 26.4668H30.6299C31.49 26.4668 31.9123 25.4194 31.2928 24.8228C31.1057 24.6427 31 24.3941 31 24.1344V12.2331C31 10.2887 30.0578 8.46493 28.4721 7.33977L21.5 2.39272C20.0125 1.24681 17.9531 1.19999 16.4151 2.27712L13.5 4.31865" stroke="black" stroke-width="3"/>
<path d="M13.5 26.4668H24.5" stroke="black" stroke-width="3" stroke-linecap="round"/>
<path d="M4.556 36.0668H5.288V39.8588H10.076V36.0668H10.808V44.4668H10.076V40.4948H5.288V44.4668H4.556V36.0668ZM15.3712 44.5508C14.8112 44.5508 14.3072 44.4268 13.8592 44.1788C13.4192 43.9308 13.0712 43.5788 12.8152 43.1228C12.5672 42.6588 12.4432 42.1108 12.4432 41.4788C12.4432 40.8388 12.5712 40.2868 12.8272 39.8228C13.0832 39.3588 13.4312 39.0028 13.8712 38.7548C14.3192 38.5068 14.8272 38.3828 15.3952 38.3828C15.9552 38.3828 16.4552 38.5068 16.8952 38.7548C17.3432 39.0028 17.6952 39.3588 17.9512 39.8228C18.2072 40.2788 18.3352 40.8228 18.3352 41.4548C18.3352 42.0948 18.2032 42.6468 17.9392 43.1108C17.6832 43.5748 17.3312 43.9308 16.8832 44.1788C16.4432 44.4268 15.9392 44.5508 15.3712 44.5508ZM15.3712 43.9028C15.7552 43.9028 16.1152 43.8188 16.4512 43.6508C16.7952 43.4748 17.0712 43.2068 17.2792 42.8468C17.4952 42.4868 17.6032 42.0268 17.6032 41.4668C17.6032 40.9068 17.4952 40.4468 17.2792 40.0868C17.0712 39.7268 16.7992 39.4628 16.4632 39.2948C16.1272 39.1188 15.7672 39.0308 15.3832 39.0308C14.9992 39.0308 14.6392 39.1188 14.3032 39.2948C13.9672 39.4628 13.6952 39.7268 13.4872 40.0868C13.2792 40.4468 13.1752 40.9068 13.1752 41.4668C13.1752 42.0268 13.2792 42.4868 13.4872 42.8468C13.6952 43.2068 13.9632 43.4748 14.2912 43.6508C14.6272 43.8188 14.9872 43.9028 15.3712 43.9028ZM19.8702 38.4668H20.5062L20.5542 39.5588C20.7062 39.2068 20.9382 38.9228 21.2502 38.7068C21.5622 38.4908 21.9622 38.3828 22.4502 38.3828C22.8982 38.3828 23.3022 38.4988 23.6622 38.7308C24.0222 38.9628 24.2902 39.3148 24.4662 39.7868C24.6342 39.3068 24.9102 38.9548 25.2942 38.7308C25.6782 38.4988 26.1102 38.3828 26.5902 38.3828C27.0302 38.3828 27.4222 38.4828 27.7662 38.6828C28.1102 38.8748 28.3782 39.1668 28.5702 39.5588C28.7622 39.9508 28.8582 40.4428 28.8582 41.0348V44.4668H28.1742V41.1068C28.1742 40.4268 28.0262 39.9108 27.7302 39.5588C27.4342 39.1988 27.0182 39.0188 26.4822 39.0188C25.9302 39.0188 25.4902 39.2148 25.1622 39.6068C24.8422 39.9988 24.6822 40.5748 24.6822 41.3348V44.4668H23.9862V41.1068C23.9862 40.4268 23.8422 39.9108 23.5542 39.5588C23.2742 39.1988 22.8662 39.0188 22.3302 39.0188C21.7782 39.0188 21.3422 39.2148 21.0222 39.6068C20.7102 39.9988 20.5542 40.5748 20.5542 41.3348V44.4668H19.8702V38.4668ZM33.1348 44.5508C32.5748 44.5508 32.0788 44.4188 31.6468 44.1548C31.2228 43.8828 30.8908 43.5108 30.6508 43.0388C30.4108 42.5668 30.2908 42.0228 30.2908 41.4068C30.2908 40.8228 30.4108 40.3028 30.6508 39.8468C30.8988 39.3908 31.2348 39.0348 31.6588 38.7788C32.0828 38.5148 32.5668 38.3828 33.1108 38.3828C33.6468 38.3828 34.1228 38.5028 34.5388 38.7428C34.9628 38.9748 35.2908 39.2988 35.5228 39.7148C35.7628 40.1228 35.8788 40.5908 35.8708 41.1188C35.8708 41.1988 35.8668 41.2868 35.8588 41.3828C35.8588 41.4708 35.8548 41.5668 35.8468 41.6708H31.0348C31.0428 42.1108 31.1388 42.4988 31.3228 42.8348C31.5068 43.1708 31.7508 43.4348 32.0548 43.6268C32.3668 43.8108 32.7188 43.9028 33.1108 43.9028C33.6068 43.9028 34.0308 43.8028 34.3828 43.6028C34.7428 43.3948 35.0028 43.1028 35.1628 42.7268L35.7508 42.9668C35.5268 43.4788 35.1868 43.8708 34.7308 44.1428C34.2748 44.4148 33.7428 44.5508 33.1348 44.5508ZM35.1268 41.0708C35.1348 40.6708 35.0548 40.3188 34.8868 40.0148C34.7188 39.7108 34.4788 39.4708 34.1668 39.2948C33.8628 39.1188 33.5028 39.0308 33.0868 39.0308C32.7188 39.0308 32.3868 39.1188 32.0908 39.2948C31.7948 39.4708 31.5508 39.7148 31.3588 40.0268C31.1748 40.3308 31.0668 40.6788 31.0348 41.0708H35.1268Z" fill="black"/>
</svg>
